<?xml version="1.0" encoding="utf-8"?>
<!-- Generator: Adobe Illustrator 28.0.0, SVG Export Plug-In . SVG Version: 6.00 Build 0)  -->
<svg version="1.1" id="Layer_1" xmlns="http://www.w3.org/2000/svg" xmlns:xlink="http://www.w3.org/1999/xlink" x="0px" y="0px"
	 viewBox="0 0 400 400" style="enable-background:new 0 0 400 400;" xml:space="preserve">
<style type="text/css">
	.st0{fill:#F97068;}
</style>
<g>
	<circle class="st0" cx="200" cy="200" r="134.6"/>
	<polygon class="st0" points="200,50.2 171,50.2 185.5,25.1 200,0 214.5,25.1 229,50.2 	"/>
	<polygon class="st0" points="200,349.8 229,349.8 214.5,374.9 200,400 185.5,374.9 171,349.8 	"/>
	<polygon class="st0" points="91.7,93.4 71.2,113.9 63.7,85.9 56.2,58 84.2,65.5 112.1,73 	"/>
	<polygon class="st0" points="303.6,305.3 324,284.9 331.5,312.8 339,340.8 311.1,333.3 283.1,325.8 	"/>
	<polygon class="st0" points="303.6,93.4 283.1,73 311.1,65.5 339,58 331.5,85.9 324,113.9 	"/>
	<polygon class="st0" points="91.7,305.3 112.1,325.8 84.2,333.3 56.2,340.8 63.7,312.8 71.2,284.9 	"/>
	<polygon class="st0" points="349.8,200.2 349.8,171.3 374.9,185.7 400,200.2 374.9,214.7 349.8,229.2 	"/>
	<polygon class="st0" points="50.2,200.2 50.2,229.2 25.1,214.7 0,200.2 25.1,185.7 50.2,171.3 	"/>
</g>
</svg>
