<?xml version="1.0" encoding="utf-8"?>
<!-- Generator: Adobe Illustrator 28.0.0, SVG Export Plug-In . SVG Version: 6.00 Build 0)  -->
<svg version="1.1" id="Layer_1" xmlns="http://www.w3.org/2000/svg" xmlns:xlink="http://www.w3.org/1999/xlink" x="0px" y="0px"
	 viewBox="0 0 400 400" style="enable-background:new 0 0 400 400;" xml:space="preserve">
<style type="text/css">
	.st0{fill:#F97068;}
</style>
<g>
	<circle class="st0" cx="200" cy="200" r="134.6"/>
	<polygon class="st0" points="258.5,62.1 231.8,50.8 255,33.3 278.1,15.9 281.7,44.7 285.2,73.4 	"/>
	<polygon class="st0" points="141.5,337.9 168.2,349.2 145,366.7 121.9,384.1 118.3,355.3 114.8,326.6 	"/>
	<polygon class="st0" points="142,59.6 115.1,70.4 119.1,41.7 123.1,13.1 146,30.9 168.7,48.8 	"/>
	<polygon class="st0" points="254.2,337.4 281,326.6 277,355.2 272.9,383.9 250.2,366.1 227.3,348.3 	"/>
	<polygon class="st0" points="337,142.4 326.1,115.6 354.8,119.6 383.4,123.6 365.6,146.4 347.8,169.2 	"/>
	<polygon class="st0" points="59.2,254.6 69.9,281.5 41.3,277.5 12.6,273.4 30.5,250.6 48.3,227.8 	"/>
	<polygon class="st0" points="337.8,258.7 349.1,232.1 366.6,255.2 384,278.3 355.3,281.9 326.5,285.4 	"/>
	<polygon class="st0" points="62,141.7 50.7,168.3 33.3,145.2 15.8,122 44.6,118.5 73.3,115 	"/>
</g>
</svg>
